<svg version="1.1" id="Layer_1" xmlns="http://www.w3.org/2000/svg" x="0px" y="0px"
     viewBox="0 0 68 104" style="enable-background:new 0 0 68 104;" xml:space="preserve">
<style type="text/css">
	.st0{fill:#EE8C5B;}
	.st1{fill:#FFFFFF;}
</style>
    <path class="st0" d="M34,1L34,1c18.2,0,33,14.8,33,33v36c0,18.2-14.8,33-33,33l0,0C15.8,103,1,88.2,1,70V34C1,15.8,15.8,1,34,1z"/>
    <path class="st1" d="M48.6,41L48.6,41c-0.1-0.7-0.5-1.4-1.2-1.7l-7.2-4.1c-0.9-0.5-2.1-0.4-2.9,0.4l-1.4,1.4
	c-0.3,0.3-0.9,0.4-1.2,0.1c-1.1-0.9-2.2-1.9-3.3-2.9c-1-1-2-2.1-2.9-3.3c-0.3-0.4-0.3-0.9,0.1-1.2l1.4-1.4c0.8-0.8,0.9-1.9,0.4-2.9
	l-4.1-7.2c-0.4-0.6-1-1.1-1.7-1.2c-0.7-0.1-1.5,0.2-2,0.7l-2.1,2.2c-1.5,1.5-1.6,4.3-0.1,7.8c1.8,3.9,4.2,7.4,7.3,10.3
	c3,3.1,6.5,5.5,10.3,7.3c1.4,0.7,3,1,4.6,1.1c0.1,0,0.2,0,0.2,0c1.1,0,2.2-0.4,3-1.2l2.1-2.1C48.4,42.5,48.7,41.8,48.6,41z
	 M24.2,18.2l0.2,0c0.4,0.1,0.7,0.3,0.8,0.6l4.1,7.2c0.3,0.5,0.2,1-0.2,1.4l-0.2,0.2l-5.3-9.3C23.8,18.2,24,18.2,24.2,18.2z
	 M44.9,44.3c-1.1,1.2-3.5,1.1-6.5-0.2c-3.7-1.7-7.1-4.1-10-7.1c-3-2.9-5.4-6.2-7.1-9.9c-1.2-3-1.3-5.4-0.2-6.5l1.5-1.5l5.4,9.3
	l-0.3,0.3c-0.8,0.8-0.8,2-0.2,2.8c0.9,1.2,2,2.3,3,3.3c1.1,1.1,2.2,2.1,3.4,3c0.8,0.7,2,0.6,2.8-0.2l0.3-0.3l9.3,5.3L44.9,44.3z
	 M47.3,42L38,36.6l0.3-0.3c0.3-0.3,0.8-0.4,1.2-0.3l7.4,4.2c0.3,0.2,0.5,0.5,0.6,0.9C47.5,41.5,47.4,41.7,47.3,42z"/>
    <path class="st1" d="M49.4,66.5L49.4,66.5l-3.7-2.5v-8.2c0-0.3-0.3-0.6-0.6-0.6c0,0,0,0,0,0H24.7c-0.3,0-0.6,0.3-0.6,0.6v8.2
	l-3.7,2.4c-0.2,0.1-0.3,0.3-0.3,0.5v15c0,0.3,0.3,0.6,0.6,0.6H49c0.2,0,0.3-0.1,0.4-0.2c0.1-0.1,0.2-0.3,0.2-0.4l0-15
	C49.6,66.8,49.6,66.6,49.4,66.5z M45.7,65.6l1.3,0.9h-1.3V65.6z M45.7,67.6h0.9l-0.9,0.5V67.6z M25.3,56.4l19.2,0v12.2l-8,4.2
	l-1.3-0.8C35.1,72,35,72,34.8,72c-0.1,0-0.2,0-0.3,0.1l-1.3,0.8l-8-4.2V56.4z M24.1,65.6l0,0.9h-1.4L24.1,65.6z M24.1,67.6v0.5
	l-0.9-0.5H24.1z M21.3,67.9l10.8,5.7l-10.8,7.1V67.9z M22.8,81.4l12.1-8l12.1,8H22.8z M48.4,80.8l-10.7-7.1l10.7-5.7V80.8z
	 M34.9,68.2l3.9,0c0.2,0,0.3-0.1,0.4-0.2c0.1-0.1,0.1-0.3,0.1-0.5c0-0.3-0.2-0.5-0.5-0.5h-3.9c-1.8,0-3.2-1.4-3.2-3.3v-0.1
	c-0.1-1.8,1.3-3.3,3.1-3.4c0.9-0.1,1.7,0.2,2.4,0.8c0.6,0.6,1,1.4,1.1,2.2c0,0.1,0,0.3,0,0.4l0,0.4c0,0.3-0.2,0.6-0.5,0.7
	c-0.3,0-0.6-0.2-0.7-0.5c0-0.1,0-0.1,0-0.2v-0.7c0-1.2-1-2.2-2.2-2.2h0c-0.6,0-1.1,0.2-1.6,0.6s-0.6,1-0.6,1.6c0,1.2,1,2.2,2.2,2.2
	c0.5,0,1-0.2,1.3-0.5c0.3,0.4,0.6,0.6,1.1,0.7c0.5,0.1,1,0,1.4-0.2c0.5-0.3,0.9-0.9,0.9-1.6v-0.3c0.1-2.5-1.8-4.6-4.2-4.7
	c-0.1,0-0.2,0-0.2,0c-2.4,0-4.3,1.9-4.5,4.2c0,0.2,0,0.3,0,0.5v0.1C30.4,66.2,32.4,68.2,34.9,68.2L34.9,68.2z M34.7,64.3
	c-0.5,0-1-0.4-1-1c0-0.5,0.4-1,1-1s1,0.4,1,1C35.7,63.8,35.3,64.3,34.7,64.3z"/>
</svg>
