<svg xmlns="http://www.w3.org/2000/svg" viewBox="0 0 94 42"><defs><style>.cls-1{fill:#f1f6fe;}.cls-2{fill:#fff;}.cls-3{fill:#353b4b;}</style></defs><g id="bg"><rect class="cls-1" x="-5354" y="-655" width="5920" height="2080"/></g><g id="UI"><rect class="cls-2" x="26" y="-26" width="42" height="94" transform="translate(68 -26) rotate(90)"/><path class="cls-3" d="M29.54,16.59v-.38a2,2,0,0,0-2-2h-17a2,2,0,0,0-2,2v.38a2,2,0,0,0,2,2H27.49A2.07,2.07,0,0,0,29.54,16.59Z"/><path class="cls-3" d="M30.15,30.22h-17a2,2,0,0,0-2,2v.38a2,2,0,0,0,2,2h16.9a2,2,0,0,0,2-2V32.2A1.9,1.9,0,0,0,30.15,30.22Z"/><path class="cls-3" d="M73.78,5.86H39.52a6.68,6.68,0,0,0-1.76.3H22.54A2.13,2.13,0,0,0,20.4,8.29a2.18,2.18,0,0,0,2.14,2.13H34.87V22.15H21.39a2.13,2.13,0,0,0,0,4.26H34.87v4.8a4.67,4.67,0,0,0,4.65,4.65H73.78a4.66,4.66,0,0,0,4.64-4.65V10.58A4.73,4.73,0,0,0,73.78,5.86ZM73.48,9,57.64,23.14a1.35,1.35,0,0,1-1.91,0L39.9,9ZM38,31.21V11.41l10.66,9.52Zm2.82,1.68L51,23.14l2.67,2.36a4.53,4.53,0,0,0,6,0l2.67-2.44,10.13,9.83ZM75.3,31.21,64.64,20.93,75.3,11.41Z"/></g></svg>