<svg xmlns="http://www.w3.org/2000/svg" viewBox="0 0 17 18"><defs><style>.phone-1{fill:#f1f6fe;}.phone-2{fill:#fff;}.phone-3{fill:#353b4b;}</style></defs><g id="bg"><rect class="phone-1" x="-5677" y="-779" width="5920" height="2080"/></g><g id="UI"><rect class="phone-2" width="17" height="18"/><path class="phone-3" d="M6.93,6.71l.26-.26a1.62,1.62,0,0,0,.52-1.13,1.62,1.62,0,0,0-.52-1.14l-.85-.83L6,3.05c-.2-.2-.38-.39-.58-.57A1.51,1.51,0,0,0,4.37,2a1.59,1.59,0,0,0-1.11.48L2.19,3.55A2.37,2.37,0,0,0,1.49,5a5.65,5.65,0,0,0,.4,2.34,13.58,13.58,0,0,0,2.38,4,15,15,0,0,0,4.89,3.84,9,9,0,0,0,2.78.79h.2A2.38,2.38,0,0,0,14,15.21l0,0a4.73,4.73,0,0,1,.54-.56c.14-.14.28-.26.4-.4a1.53,1.53,0,0,0,0-2.24l-1.71-1.71a1.51,1.51,0,0,0-1.11-.52,1.6,1.6,0,0,0-1.12.5l-.93.93a.93.93,0,0,0-.2-.09,2,2,0,0,1-.3-.16A10.67,10.67,0,0,1,7,8.63a5.81,5.81,0,0,1-.79-1.25C6.5,7.16,6.71,6.92,6.93,6.71Z"/></g></svg>