<svg xmlns="http://www.w3.org/2000/svg" viewBox="0 0 17 18"><defs><style>.mail-1{fill:#f1f6fe;}.mail-2{fill:#fff;}.mail-3{fill:#353b4b;}</style></defs><g id="bg"><rect class="mail-1" x="-5677" y="-806" width="5920" height="2080"/></g><g id="UI"><rect class="mail-2" width="17" height="18"/><path class="mail-3" d="M2.8,7.21,4.4,8.32l2,1.43c.06,0,.17.11.34.24l.42.29.4.26a3,3,0,0,0,.45.21,1.15,1.15,0,0,0,.39.07h0a1.15,1.15,0,0,0,.39-.07,3,3,0,0,0,.45-.21l.41-.26.42-.29.33-.24,3.66-2.54a3.94,3.94,0,0,0,1-1,2.12,2.12,0,0,0,.38-1.18,1.18,1.18,0,0,0-.37-.88,1.19,1.19,0,0,0-.88-.37H2.7a1.08,1.08,0,0,0-.92.41,1.53,1.53,0,0,0-.33,1,1.89,1.89,0,0,0,.43,1.07A3.9,3.9,0,0,0,2.8,7.21Z"/><path class="mail-3" d="M14.67,8.05c-1.71,1.15-3,2-3.89,2.69l-.72.51a4.18,4.18,0,0,1-.74.38,2.2,2.2,0,0,1-.86.19h0a2.24,2.24,0,0,1-.86-.19,4,4,0,0,1-.73-.38c-.19-.12-.43-.29-.73-.51q-1-.76-3.88-2.69a4.35,4.35,0,0,1-.79-.68v6.2a1.18,1.18,0,0,0,.37.88,1.18,1.18,0,0,0,.88.37H14.2a1.16,1.16,0,0,0,.88-.37,1.18,1.18,0,0,0,.37-.88V7.37A4.33,4.33,0,0,1,14.67,8.05Z"/></g></svg>