<svg xmlns="http://www.w3.org/2000/svg" viewBox="0 0 44 44"><g id="UI"><path class="popup-tel-icon" d="M16.59,22.34,17,22a2.27,2.27,0,0,0,0-3.44l-1.3-1.27-.45-.45c-.3-.3-.57-.6-.87-.88a2.34,2.34,0,0,0-1.66-.72,2.43,2.43,0,0,0-1.69.72L9.38,17.54a3.6,3.6,0,0,0-1.06,2.27,8.76,8.76,0,0,0,.6,3.56,21,21,0,0,0,3.63,6.06A22.46,22.46,0,0,0,20,35.25a13.13,13.13,0,0,0,4.22,1.21h.3a3.59,3.59,0,0,0,2.81-1.21l0,0a7.1,7.1,0,0,1,.81-.84c.22-.21.43-.39.61-.6a2.33,2.33,0,0,0,0-3.41l-2.6-2.6A2.28,2.28,0,0,0,24.46,27a2.44,2.44,0,0,0-1.69.75l-1.41,1.42a3,3,0,0,0-.31-.15,3.06,3.06,0,0,1-.45-.24,16.09,16.09,0,0,1-3.86-3.5,9.7,9.7,0,0,1-1.21-1.9C15.92,23,16.26,22.67,16.59,22.34ZM15.5,21.28c-.39.4-.78.79-1.17,1.15l0,0A1.06,1.06,0,0,0,14,23.64s0,0,0,.06a10.4,10.4,0,0,0,1.54,2.5A16.6,16.6,0,0,0,19.82,30c.21.13.39.22.6.34a3.06,3.06,0,0,1,.45.24s0,0,.06,0a1.07,1.07,0,0,0,1.33-.24l1.63-1.63a.75.75,0,0,1,1.24,0l2.59,2.59a.81.81,0,0,1,0,1.3l-.57.57c-.3.3-.63.61-.91.94a2.16,2.16,0,0,1-1.69.69h-.21a10.45,10.45,0,0,1-3.65-1.08,20.78,20.78,0,0,1-6.91-5.44,19.67,19.67,0,0,1-3.38-5.61,6.4,6.4,0,0,1-.51-2.89,1.91,1.91,0,0,1,.63-1.33l1.6-1.6a.82.82,0,0,1,1.27,0l.84.84.46.46L16,19.5a1,1,0,0,1,.34.64,1,1,0,0,1-.34.63A4.13,4.13,0,0,1,15.5,21.28ZM28.78,8.46c5.16,0,9.35,3.71,9.35,8.3s-4.19,8.3-9.35,8.3a9.64,9.64,0,0,1-2.51-.31.74.74,0,1,1,.37-1.44,8.48,8.48,0,0,0,2.14.27c4.34,0,7.84-3,7.84-6.79S33.09,10,28.78,10s-7.85,3.05-7.85,6.79A6.2,6.2,0,0,0,22.65,21a.83.83,0,0,1,.15.79,5.14,5.14,0,0,1-.66,1.2,4.18,4.18,0,0,0,1.57-.51.75.75,0,0,1,1,.27.74.74,0,0,1-.28,1,5.74,5.74,0,0,1-3.77.69,1,1,0,0,1-.81-.75,1,1,0,0,1,.42-1.06,2.88,2.88,0,0,0,.9-1,7.84,7.84,0,0,1-1.78-4.89C19.39,12.17,23.62,8.46,28.78,8.46ZM25,16h7.66a.75.75,0,0,1,.75.76.74.74,0,0,1-.75.75H25a.75.75,0,0,1-.76-.75A.75.75,0,0,1,25,16Zm-.12-2a.74.74,0,0,1,.75-.75H32a.76.76,0,0,1,0,1.51H25.58A.75.75,0,0,1,24.83,14Zm0,5.49a.74.74,0,0,1,.75-.75H32a.76.76,0,0,1,0,1.51H25.58A.75.75,0,0,1,24.83,19.5Z"/></g></svg>