<svg xmlns="http://www.w3.org/2000/svg" viewBox="0 0 44 44"><g id="UI"><path class="popup-mail-icon" d="M14.62,19.23V19A1,1,0,0,0,13.56,18h-9A1,1,0,0,0,3.45,19v.21a1.05,1.05,0,0,0,1.06,1.05h9A1.12,1.12,0,0,0,14.62,19.23Z"/><path class="popup-mail-icon" d="M14.94,26.49h-9a1.05,1.05,0,0,0-1.06,1.06v.2a1.05,1.05,0,0,0,1.06,1.06h9A1.05,1.05,0,0,0,16,27.75v-.2A1,1,0,0,0,14.94,26.49Z"/><path class="popup-mail-icon" d="M38.21,13.5H19.94a3.56,3.56,0,0,0-.94.16H10.88A1.13,1.13,0,0,0,9.75,14.8a1.16,1.16,0,0,0,1.13,1.14h6.58v6.25H10.27a1.14,1.14,0,0,0,0,2.27h7.19V27a2.49,2.49,0,0,0,2.48,2.48H38.21A2.49,2.49,0,0,0,40.69,27V16A2.53,2.53,0,0,0,38.21,13.5Zm-.16,1.66L29.6,22.72a.71.71,0,0,1-1,0l-8.45-7.56ZM19.13,27V16.46l5.68,5.08Zm1.5.9,5.44-5.2L27.49,24a2.42,2.42,0,0,0,3.21,0l1.42-1.3,5.4,5.24ZM39,27l-5.68-5.48L39,16.46Z"/></g></svg>