<svg xmlns="http://www.w3.org/2000/svg" viewBox="0 0 16 15"><defs><style>.cls-1{fill:#f1f6fe;}.cls-2{fill:#fff;}.cls-3{fill:#353b4b;fill-rule:evenodd;}</style></defs><g id="bg"><rect class="cls-1" x="-3663" y="-1136" width="5920" height="2080"/></g><g id="UI"><rect class="cls-2" width="16" height="15"/><path class="cls-3" d="M9.14,7.13a.53.53,0,0,0,0,.74l4.71,4.7a.52.52,0,0,1,0,.73l0,0a.52.52,0,0,1-.73,0L8.37,8.64a.53.53,0,0,0-.74,0l-4.7,4.71a.52.52,0,0,1-.73,0l-.05,0a.52.52,0,0,1,0-.73l4.71-4.7a.53.53,0,0,0,0-.74L2.15,2.43a.52.52,0,0,1,0-.73l.05-.05a.52.52,0,0,1,.73,0l4.7,4.71a.53.53,0,0,0,.74,0l4.7-4.71a.52.52,0,0,1,.73,0l0,.05a.52.52,0,0,1,0,.73Z"/></g></svg>